<svg width="132" height="57" viewBox="0 0 132 57" fill="none" xmlns="http://www.w3.org/2000/svg">
<path d="M68.7521 22.2364C68.7521 22.6688 69.1027 23.0194 69.5351 23.0194H70.9714C71.4039 23.0194 71.7545 22.6688 71.7545 22.2364C71.7545 21.804 71.4039 21.4534 70.9714 21.4534H69.5351C69.1027 21.4534 68.7521 21.804 68.7521 22.2364Z" fill="white"/>
<path d="M79.0062 26.4806C78.845 26.4806 78.6873 26.4951 78.5335 26.5212L73.3726 17.9589C73.3933 17.9336 73.4131 17.9073 73.431 17.879L76.8968 12.3746C77.0405 12.1464 77.0565 11.8603 76.9395 11.6174C76.8224 11.3745 76.5885 11.2088 76.3206 11.1791L70.6347 10.5477L71.2803 4.86373C71.3107 4.59603 71.2014 4.33146 70.9906 4.16334C70.7802 3.99531 70.498 3.94723 70.2435 4.03631L64.844 5.92653L62.9585 0.525034C62.8696 0.270412 62.6561 0.0794463 62.3932 0.0195679C62.1305 -0.0401263 61.855 0.0392819 61.6647 0.230248L57.6251 4.28218L53.5855 0.230248C53.3951 0.0392819 53.1198 -0.0403106 52.8571 0.0195679C52.5941 0.0794463 52.3806 0.270505 52.2917 0.524942L50.4063 5.92644L45.0066 4.03631C44.7522 3.94732 44.47 3.99522 44.2594 4.16334C44.0488 4.33137 43.9394 4.59594 43.9698 4.86373L44.6154 10.5477L38.9296 11.1792C38.6615 11.2089 38.4277 11.3745 38.3106 11.6175C38.1936 11.8604 38.2097 12.1464 38.3534 12.3747L41.4014 17.2156L36.5576 20.2576C36.3295 20.4008 36.191 20.6513 36.191 20.9206C36.191 21.19 36.3295 21.4404 36.5576 21.5837L41.4015 24.6257L38.3535 29.4667C38.2016 29.7079 38.1928 30.0125 38.3305 30.262C38.468 30.5115 38.7303 30.6666 39.0153 30.667L76.5944 30.7093C77.0832 31.5329 77.9811 32.0865 79.0062 32.0865C80.5518 32.0865 81.8092 30.8291 81.8092 29.2835C81.809 27.7379 80.5517 26.4806 79.0062 26.4806ZM76.2069 29.1428L62.2456 29.127C60.3969 22.8652 64.9751 17.9954 70.3158 15.9213L77.1207 27.2112C76.5898 27.6947 76.2448 28.379 76.2069 29.1428ZM43.1444 24.7968C43.2551 24.6209 43.2914 24.4082 43.2453 24.2056C43.199 24.003 43.0743 23.8271 42.8983 23.7164L38.4464 20.9206L42.8983 18.1247C43.0743 18.0141 43.1991 17.8382 43.2453 17.6355C43.2915 17.4329 43.2551 17.2202 43.1444 17.0443L40.3445 12.5975L45.5685 12.0174C45.7753 11.9944 45.9643 11.8901 46.0941 11.7276C46.2239 11.565 46.2836 11.3574 46.2601 11.1508L45.6668 5.92644L50.6285 7.66337C50.8245 7.732 51.0399 7.71975 51.2272 7.62975C51.4144 7.53947 51.558 7.37854 51.6265 7.1825L53.3586 2.22061L57.0706 5.94403C57.2175 6.09143 57.417 6.17424 57.6251 6.17424C57.8332 6.17424 58.0328 6.09143 58.1797 5.94403L61.8918 2.22061L63.6237 7.1825C63.6922 7.37872 63.8359 7.53966 64.0231 7.62984C64.2102 7.72003 64.4257 7.73219 64.6218 7.66347L69.5836 5.92653L68.9902 11.1509C68.9667 11.3575 69.0265 11.5651 69.1562 11.7276C69.2859 11.8903 69.4751 11.9945 69.6818 12.0175L74.9058 12.5975L72.4715 16.4636L71.3237 14.5593C71.1326 14.2424 70.746 14.1027 70.3968 14.2235C66.806 15.4669 63.8564 17.6385 62.0919 20.3383C60.3345 23.0272 59.8338 26.0454 60.6208 29.125L40.4337 29.1023L43.1444 24.7968ZM79.0062 30.5204C78.3242 30.5204 77.7693 29.9655 77.7693 29.2835C77.7693 28.6014 78.3242 28.0465 79.0062 28.0465C79.6881 28.0465 80.2431 28.6014 80.2431 29.2835C80.2431 29.9655 79.6881 30.5204 79.0062 30.5204Z" fill="white"/>
<path d="M16.104 55.736C16.148 55.736 16.17 55.78 16.17 55.868C16.17 55.956 16.148 56 16.104 56C15.5907 56 15.18 55.9927 14.872 55.978L13.178 55.956L11.198 55.978C10.934 55.9927 10.5747 56 10.12 56C10.076 56 10.054 55.956 10.054 55.868C10.054 55.78 10.076 55.736 10.12 55.736C10.6627 55.736 11.0587 55.6993 11.308 55.626C11.5573 55.5527 11.726 55.4133 11.814 55.208C11.902 55.0027 11.946 54.6727 11.946 54.218V49.158H4.84V54.218C4.84 54.658 4.884 54.988 4.972 55.208C5.06 55.4133 5.22867 55.5527 5.478 55.626C5.72733 55.6993 6.12333 55.736 6.666 55.736C6.69533 55.736 6.71 55.78 6.71 55.868C6.71 55.956 6.69533 56 6.666 56C6.15267 56 5.742 55.9927 5.434 55.978L3.52 55.956L1.87 55.978C1.57667 55.9927 1.17333 56 0.66 56C0.630667 56 0.616 55.956 0.616 55.868C0.616 55.78 0.630667 55.736 0.66 55.736C1.17333 55.736 1.54733 55.6993 1.782 55.626C2.01667 55.5527 2.178 55.4133 2.266 55.208C2.354 54.988 2.398 54.658 2.398 54.218V44.032C2.398 43.592 2.354 43.2693 2.266 43.064C2.178 42.8587 2.01667 42.7193 1.782 42.646C1.562 42.558 1.20267 42.514 0.704 42.514C0.66 42.514 0.638 42.47 0.638 42.382C0.638 42.294 0.66 42.25 0.704 42.25L1.892 42.272C2.56667 42.3013 3.10933 42.316 3.52 42.316C4.07733 42.316 4.72267 42.3013 5.456 42.272L6.666 42.25C6.69533 42.25 6.71 42.294 6.71 42.382C6.71 42.47 6.69533 42.514 6.666 42.514C6.138 42.514 5.74933 42.558 5.5 42.646C5.25067 42.734 5.07467 42.888 4.972 43.108C4.884 43.3133 4.84 43.636 4.84 44.076V48.542H11.946V44.076C11.946 43.636 11.902 43.3133 11.814 43.108C11.726 42.888 11.5573 42.734 11.308 42.646C11.0587 42.558 10.6627 42.514 10.12 42.514C10.076 42.514 10.054 42.47 10.054 42.382C10.054 42.294 10.076 42.25 10.12 42.25L11.198 42.272C11.9313 42.3013 12.5913 42.316 13.178 42.316C13.574 42.316 14.1387 42.3013 14.872 42.272L16.104 42.25C16.148 42.25 16.17 42.294 16.17 42.382C16.17 42.47 16.148 42.514 16.104 42.514C15.6053 42.514 15.2313 42.558 14.982 42.646C14.7473 42.7193 14.586 42.8587 14.498 43.064C14.4247 43.2693 14.388 43.592 14.388 44.032V54.218C14.388 54.658 14.4247 54.988 14.498 55.208C14.586 55.4133 14.7473 55.5527 14.982 55.626C15.2167 55.6993 15.5907 55.736 16.104 55.736ZM27.7128 52.502C27.7128 52.4727 27.7421 52.458 27.8008 52.458C27.8448 52.458 27.8814 52.4727 27.9108 52.502C27.9548 52.5167 27.9768 52.5313 27.9768 52.546C27.8301 53.69 27.7568 54.7313 27.7568 55.67C27.7568 55.7873 27.7348 55.8753 27.6908 55.934C27.6468 55.978 27.5588 56 27.4268 56H17.7028C17.6588 56 17.6368 55.956 17.6368 55.868C17.6368 55.78 17.6588 55.736 17.7028 55.736C18.1721 55.736 18.5094 55.6993 18.7148 55.626C18.9348 55.5527 19.0814 55.4133 19.1548 55.208C19.2281 54.988 19.2648 54.658 19.2648 54.218V44.032C19.2648 43.592 19.2281 43.2693 19.1548 43.064C19.0814 42.8587 18.9348 42.7193 18.7148 42.646C18.4948 42.558 18.1574 42.514 17.7028 42.514C17.6588 42.514 17.6368 42.47 17.6368 42.382C17.6368 42.294 17.6588 42.25 17.7028 42.25H27.0308C27.1774 42.25 27.2508 42.316 27.2508 42.448L27.2948 45.374C27.2948 45.4033 27.2508 45.4253 27.1628 45.44C27.0894 45.4547 27.0454 45.44 27.0308 45.396C26.7961 44.5453 26.4001 43.9147 25.8428 43.504C25.2854 43.0933 24.5521 42.888 23.6428 42.888H22.9828C22.5428 42.888 22.2201 42.9833 22.0148 43.174C21.8094 43.3647 21.7068 43.658 21.7068 44.054V48.542H23.5328C24.3834 48.542 25.0361 48.3953 25.4908 48.102C25.9454 47.8087 26.1728 47.398 26.1728 46.87C26.1728 46.826 26.2094 46.804 26.2828 46.804C26.3708 46.804 26.4148 46.826 26.4148 46.87L26.3928 48.85L26.4148 49.906C26.4441 50.4047 26.4588 50.8007 26.4588 51.094C26.4588 51.1233 26.4148 51.138 26.3268 51.138C26.2388 51.138 26.1948 51.1233 26.1948 51.094C26.1948 50.4927 25.9601 50.0233 25.4908 49.686C25.0361 49.334 24.3761 49.158 23.5108 49.158H21.7068V54.13C21.7068 54.5553 21.7874 54.8707 21.9488 55.076C22.1101 55.2813 22.3668 55.384 22.7188 55.384H23.4448C24.5888 55.384 25.5054 55.1493 26.1948 54.68C26.8841 54.2107 27.3901 53.4847 27.7128 52.502ZM36.1115 56.088C35.6421 56.088 35.0848 56.066 34.4395 56.022C34.2048 56.0073 33.9115 55.9927 33.5595 55.978C33.2221 55.9633 32.8408 55.956 32.4155 55.956L30.7875 55.978C30.4941 55.9927 30.0981 56 29.5995 56C29.5701 56 29.5555 55.956 29.5555 55.868C29.5555 55.78 29.5701 55.736 29.5995 55.736C30.0688 55.736 30.4135 55.6993 30.6335 55.626C30.8535 55.5527 31.0001 55.4133 31.0735 55.208C31.1615 54.988 31.2055 54.658 31.2055 54.218V44.032C31.2055 43.592 31.1615 43.2693 31.0735 43.064C31.0001 42.8587 30.8535 42.7193 30.6335 42.646C30.4281 42.558 30.0981 42.514 29.6435 42.514C29.5995 42.514 29.5775 42.47 29.5775 42.382C29.5775 42.294 29.5995 42.25 29.6435 42.25L30.8095 42.272C31.4841 42.3013 32.0195 42.316 32.4155 42.316C33.0168 42.316 33.6328 42.294 34.2635 42.25C35.0261 42.2207 35.5395 42.206 35.8035 42.206C37.2848 42.206 38.5975 42.4993 39.7415 43.086C40.9001 43.6727 41.7948 44.472 42.4255 45.484C43.0561 46.496 43.3715 47.6327 43.3715 48.894C43.3715 50.3167 43.0415 51.578 42.3815 52.678C41.7361 53.7633 40.8561 54.6067 39.7415 55.208C38.6415 55.7947 37.4315 56.088 36.1115 56.088ZM35.8915 55.582C36.8301 55.582 37.6588 55.3473 38.3775 54.878C39.0961 54.394 39.6535 53.6827 40.0495 52.744C40.4601 51.8053 40.6655 50.6833 40.6655 49.378C40.6655 48.1313 40.4748 47.002 40.0935 45.99C39.7121 44.9633 39.1695 44.1567 38.4655 43.57C37.7615 42.9833 36.9475 42.69 36.0235 42.69C35.1141 42.69 34.4908 42.778 34.1535 42.954C33.8161 43.13 33.6475 43.504 33.6475 44.076V53.976C33.6475 54.5627 33.8015 54.9807 34.1095 55.23C34.4175 55.4647 35.0115 55.582 35.8915 55.582ZM53.4492 56.264C51.8358 56.264 50.4278 55.956 49.2252 55.34C48.0225 54.724 47.1058 53.888 46.4752 52.832C45.8445 51.7613 45.5292 50.5733 45.5292 49.268C45.5292 47.86 45.8885 46.606 46.6072 45.506C47.3405 44.3913 48.3378 43.5333 49.5992 42.932C50.8752 42.316 52.2978 42.008 53.8672 42.008C54.5565 42.008 55.2532 42.0667 55.9572 42.184C56.6612 42.2867 57.2258 42.426 57.6512 42.602C57.7832 42.646 57.8638 42.7047 57.8932 42.778C57.9372 42.8367 57.9665 42.9467 57.9812 43.108L58.2672 46.166C58.2672 46.21 58.2305 46.2393 58.1572 46.254C58.0838 46.2687 58.0325 46.2467 58.0032 46.188C57.4898 45.0587 56.7785 44.1787 55.8692 43.548C54.9745 42.9173 53.9478 42.602 52.7892 42.602C51.2932 42.602 50.1492 43.1227 49.3572 44.164C48.5798 45.2053 48.1912 46.628 48.1912 48.432C48.1912 49.884 48.4405 51.182 48.9392 52.326C49.4378 53.4553 50.1272 54.3353 51.0072 54.966C51.9018 55.582 52.8992 55.89 53.9992 55.89C54.6005 55.89 55.0625 55.824 55.3852 55.692C55.7078 55.56 55.9425 55.3033 56.0892 54.922C56.2358 54.5407 56.3092 53.976 56.3092 53.228C56.3092 52.4653 56.2652 51.9373 56.1772 51.644C56.0892 51.336 55.8985 51.1307 55.6052 51.028C55.3265 50.9253 54.8352 50.874 54.1312 50.874C54.0432 50.874 53.9992 50.8153 53.9992 50.698C53.9992 50.654 54.0065 50.6173 54.0212 50.588C54.0505 50.544 54.0798 50.522 54.1092 50.522C55.3558 50.5953 56.3605 50.632 57.1232 50.632C57.8712 50.632 58.6485 50.61 59.4552 50.566C59.4845 50.566 59.5065 50.588 59.5212 50.632C59.5505 50.6613 59.5652 50.6907 59.5652 50.72C59.5652 50.8227 59.5285 50.874 59.4552 50.874C59.1912 50.8593 59.0078 50.9107 58.9052 51.028C58.8025 51.1307 58.7365 51.3507 58.7072 51.688C58.6778 52.0107 58.6632 52.5973 58.6632 53.448C58.6632 54.108 58.6852 54.5773 58.7292 54.856C58.7878 55.1347 58.8172 55.3107 58.8172 55.384C58.8172 55.472 58.7952 55.5307 58.7512 55.56C58.7218 55.5893 58.6558 55.6187 58.5532 55.648C56.6612 56.0587 54.9598 56.264 53.4492 56.264ZM71.1757 52.502C71.1757 52.4727 71.205 52.458 71.2637 52.458C71.3077 52.458 71.3443 52.4727 71.3737 52.502C71.4177 52.5167 71.4397 52.5313 71.4397 52.546C71.293 53.69 71.2197 54.7313 71.2197 55.67C71.2197 55.7873 71.1977 55.8753 71.1537 55.934C71.1097 55.978 71.0217 56 70.8897 56H61.1657C61.1217 56 61.0997 55.956 61.0997 55.868C61.0997 55.78 61.1217 55.736 61.1657 55.736C61.635 55.736 61.9723 55.6993 62.1777 55.626C62.3977 55.5527 62.5443 55.4133 62.6177 55.208C62.691 54.988 62.7277 54.658 62.7277 54.218V44.032C62.7277 43.592 62.691 43.2693 62.6177 43.064C62.5443 42.8587 62.3977 42.7193 62.1777 42.646C61.9577 42.558 61.6203 42.514 61.1657 42.514C61.1217 42.514 61.0997 42.47 61.0997 42.382C61.0997 42.294 61.1217 42.25 61.1657 42.25H70.4937C70.6403 42.25 70.7137 42.316 70.7137 42.448L70.7577 45.374C70.7577 45.4033 70.7137 45.4253 70.6257 45.44C70.5523 45.4547 70.5083 45.44 70.4937 45.396C70.259 44.5453 69.863 43.9147 69.3057 43.504C68.7483 43.0933 68.015 42.888 67.1057 42.888H66.4457C66.0057 42.888 65.683 42.9833 65.4777 43.174C65.2723 43.3647 65.1697 43.658 65.1697 44.054V48.542H66.9957C67.8463 48.542 68.499 48.3953 68.9537 48.102C69.4083 47.8087 69.6357 47.398 69.6357 46.87C69.6357 46.826 69.6723 46.804 69.7457 46.804C69.8337 46.804 69.8777 46.826 69.8777 46.87L69.8557 48.85L69.8777 49.906C69.907 50.4047 69.9217 50.8007 69.9217 51.094C69.9217 51.1233 69.8777 51.138 69.7897 51.138C69.7017 51.138 69.6577 51.1233 69.6577 51.094C69.6577 50.4927 69.423 50.0233 68.9537 49.686C68.499 49.334 67.839 49.158 66.9737 49.158H65.1697V54.13C65.1697 54.5553 65.2503 54.8707 65.4117 55.076C65.573 55.2813 65.8297 55.384 66.1817 55.384H66.9077C68.0517 55.384 68.9683 55.1493 69.6577 54.68C70.347 54.2107 70.853 53.4847 71.1757 52.502ZM88.5063 55.736C88.5503 55.736 88.5723 55.78 88.5723 55.868C88.5723 55.956 88.5503 56 88.5063 56C87.993 56 87.5823 55.9927 87.2743 55.978L85.5803 55.956L83.6003 55.978C83.3363 55.9927 82.977 56 82.5223 56C82.4783 56 82.4563 55.956 82.4563 55.868C82.4563 55.78 82.4783 55.736 82.5223 55.736C83.065 55.736 83.461 55.6993 83.7103 55.626C83.9597 55.5527 84.1283 55.4133 84.2163 55.208C84.3043 55.0027 84.3483 54.6727 84.3483 54.218V49.158H77.2423V54.218C77.2423 54.658 77.2863 54.988 77.3743 55.208C77.4623 55.4133 77.631 55.5527 77.8803 55.626C78.1297 55.6993 78.5257 55.736 79.0683 55.736C79.0977 55.736 79.1123 55.78 79.1123 55.868C79.1123 55.956 79.0977 56 79.0683 56C78.555 56 78.1443 55.9927 77.8363 55.978L75.9223 55.956L74.2723 55.978C73.979 55.9927 73.5757 56 73.0623 56C73.033 56 73.0183 55.956 73.0183 55.868C73.0183 55.78 73.033 55.736 73.0623 55.736C73.5757 55.736 73.9497 55.6993 74.1843 55.626C74.419 55.5527 74.5803 55.4133 74.6683 55.208C74.7563 54.988 74.8003 54.658 74.8003 54.218V44.032C74.8003 43.592 74.7563 43.2693 74.6683 43.064C74.5803 42.8587 74.419 42.7193 74.1843 42.646C73.9643 42.558 73.605 42.514 73.1063 42.514C73.0623 42.514 73.0403 42.47 73.0403 42.382C73.0403 42.294 73.0623 42.25 73.1063 42.25L74.2943 42.272C74.969 42.3013 75.5117 42.316 75.9223 42.316C76.4797 42.316 77.125 42.3013 77.8583 42.272L79.0683 42.25C79.0977 42.25 79.1123 42.294 79.1123 42.382C79.1123 42.47 79.0977 42.514 79.0683 42.514C78.5403 42.514 78.1517 42.558 77.9023 42.646C77.653 42.734 77.477 42.888 77.3743 43.108C77.2863 43.3133 77.2423 43.636 77.2423 44.076V48.542H84.3483V44.076C84.3483 43.636 84.3043 43.3133 84.2163 43.108C84.1283 42.888 83.9597 42.734 83.7103 42.646C83.461 42.558 83.065 42.514 82.5223 42.514C82.4783 42.514 82.4563 42.47 82.4563 42.382C82.4563 42.294 82.4783 42.25 82.5223 42.25L83.6003 42.272C84.3337 42.3013 84.9937 42.316 85.5803 42.316C85.9763 42.316 86.541 42.3013 87.2743 42.272L88.5063 42.25C88.5503 42.25 88.5723 42.294 88.5723 42.382C88.5723 42.47 88.5503 42.514 88.5063 42.514C88.0077 42.514 87.6337 42.558 87.3843 42.646C87.1497 42.7193 86.9883 42.8587 86.9003 43.064C86.827 43.2693 86.7903 43.592 86.7903 44.032V54.218C86.7903 54.658 86.827 54.988 86.9003 55.208C86.9883 55.4133 87.1497 55.5527 87.3843 55.626C87.619 55.6993 87.993 55.736 88.5063 55.736ZM97.2551 56.264C95.8911 56.264 94.6738 55.9487 93.6031 55.318C92.5471 54.6727 91.7258 53.8073 91.1391 52.722C90.5671 51.622 90.2811 50.4267 90.2811 49.136C90.2811 47.6253 90.6625 46.3347 91.4251 45.264C92.1878 44.1787 93.1631 43.3647 94.3511 42.822C95.5538 42.2793 96.7785 42.008 98.0251 42.008C99.4185 42.008 100.643 42.338 101.699 42.998C102.755 43.6433 103.562 44.5013 104.119 45.572C104.691 46.6427 104.977 47.7793 104.977 48.982C104.977 50.3167 104.625 51.5413 103.921 52.656C103.217 53.7707 102.271 54.6507 101.083 55.296C99.9098 55.9413 98.6338 56.264 97.2551 56.264ZM97.9811 55.714C98.8025 55.714 99.5358 55.4793 100.181 55.01C100.841 54.526 101.354 53.8293 101.721 52.92C102.088 51.996 102.271 50.896 102.271 49.62C102.271 48.2707 102.066 47.068 101.655 46.012C101.244 44.9413 100.65 44.1053 99.8731 43.504C99.0958 42.9027 98.1865 42.602 97.1451 42.602C95.8105 42.602 94.7838 43.108 94.0651 44.12C93.3465 45.1173 92.9871 46.518 92.9871 48.322C92.9871 49.7447 93.1998 51.0207 93.6251 52.15C94.0651 53.2647 94.6591 54.1373 95.4071 54.768C96.1698 55.3987 97.0278 55.714 97.9811 55.714ZM115.045 56.264C113.432 56.264 112.024 55.956 110.821 55.34C109.618 54.724 108.702 53.888 108.071 52.832C107.44 51.7613 107.125 50.5733 107.125 49.268C107.125 47.86 107.484 46.606 108.203 45.506C108.936 44.3913 109.934 43.5333 111.195 42.932C112.471 42.316 113.894 42.008 115.463 42.008C116.152 42.008 116.849 42.0667 117.553 42.184C118.257 42.2867 118.822 42.426 119.247 42.602C119.379 42.646 119.46 42.7047 119.489 42.778C119.533 42.8367 119.562 42.9467 119.577 43.108L119.863 46.166C119.863 46.21 119.826 46.2393 119.753 46.254C119.68 46.2687 119.628 46.2467 119.599 46.188C119.086 45.0587 118.374 44.1787 117.465 43.548C116.57 42.9173 115.544 42.602 114.385 42.602C112.889 42.602 111.745 43.1227 110.953 44.164C110.176 45.2053 109.787 46.628 109.787 48.432C109.787 49.884 110.036 51.182 110.535 52.326C111.034 53.4553 111.723 54.3353 112.603 54.966C113.498 55.582 114.495 55.89 115.595 55.89C116.196 55.89 116.658 55.824 116.981 55.692C117.304 55.56 117.538 55.3033 117.685 54.922C117.832 54.5407 117.905 53.976 117.905 53.228C117.905 52.4653 117.861 51.9373 117.773 51.644C117.685 51.336 117.494 51.1307 117.201 51.028C116.922 50.9253 116.431 50.874 115.727 50.874C115.639 50.874 115.595 50.8153 115.595 50.698C115.595 50.654 115.602 50.6173 115.617 50.588C115.646 50.544 115.676 50.522 115.705 50.522C116.952 50.5953 117.956 50.632 118.719 50.632C119.467 50.632 120.244 50.61 121.051 50.566C121.08 50.566 121.102 50.588 121.117 50.632C121.146 50.6613 121.161 50.6907 121.161 50.72C121.161 50.8227 121.124 50.874 121.051 50.874C120.787 50.8593 120.604 50.9107 120.501 51.028C120.398 51.1307 120.332 51.3507 120.303 51.688C120.274 52.0107 120.259 52.5973 120.259 53.448C120.259 54.108 120.281 54.5773 120.325 54.856C120.384 55.1347 120.413 55.3107 120.413 55.384C120.413 55.472 120.391 55.5307 120.347 55.56C120.318 55.5893 120.252 55.6187 120.149 55.648C118.257 56.0587 116.556 56.264 115.045 56.264Z" fill="white"/>
<rect x="85.7191" y="17.9983" width="31.2809" height="1.30337" fill="white"/>
<rect x="1" y="17.9983" width="29.9775" height="1.30337" fill="white"/>
</svg>
